<mxfile host="app.diagrams.net" modified="2024-05-23T05:55:35.121Z" agent="Mozilla/5.0 (Macintosh; Intel Mac OS X 10_15_7) AppleWebKit/537.36 (KHTML, like Gecko) Chrome/122.0.0.0 Safari/537.36" version="24.4.6" etag="yFNlD6YmPfYmsi7nNXzz" type="github">
  <diagram name="Page-1" id="GEY97MsDIL_92CJnLeTl">
    <mxGraphModel>
      <root>
        <mxCell id="0" />
        <mxCell id="1" parent="0" />
      </root>
    </mxGraphModel>
  </diagram>
</mxfile>
